<?xml version="1.0" standalone="no"?>
<!DOCTYPE svg PUBLIC "-//W3C//DTD SVG 20010904//EN"
 "http://www.w3.org/TR/2001/REC-SVG-20010904/DTD/svg10.dtd">
<svg version="1.0" xmlns="http://www.w3.org/2000/svg"
 width="881.000000pt" height="702.000000pt" viewBox="0 0 881.000000 702.000000"
 preserveAspectRatio="xMidYMid meet">

<g transform="translate(0.000000,702.000000) scale(0.100000,-0.100000)"
fill="#000000" stroke="none">
<path d="M0 3510 l0 -3510 4405 0 4405 0 0 3510 0 3510 -4405 0 -4405 0 0
-3510z m4445 1926 c24 -26 24 -26 -35 -26 -59 0 -59 0 -36 26 27 30 43 30 71
0z m-205 -65 c-8 -5 -26 -11 -40 -15 -21 -5 -20 -3 5 9 32 15 60 20 35 6z
m-180 -51 c14 -4 19 -8 13 -9 -7 -1 -13 -7 -13 -15 0 -22 -40 -31 -58 -13 -13
13 -13 19 -2 31 14 17 22 18 60 6z m374 -47 c-23 -17 -39 -16 -53 1 -10 12 -8
19 10 37 l22 22 19 -23 c19 -23 19 -25 2 -37z m384 33 c2 -10 -1 -23 -6 -28
-13 -13 -52 0 -52 18 0 8 -6 14 -12 15 -7 1 -2 5 12 9 36 12 54 7 58 -14z
m-562 -75 c0 -12 -6 -17 -18 -13 -23 6 -23 19 0 25 9 3 17 5 17 6 1 0 1 -7 1
-18z m344 -2 c0 -14 -27 -10 -33 5 -4 10 0 12 14 9 10 -3 19 -9 19 -14z m-162
-48 c10 -6 8 -13 -8 -32 l-20 -24 -20 24 c-22 25 -14 41 20 41 8 0 21 -4 28
-9z m-610 -86 c1 -1 -7 -14 -19 -28 -17 -22 -24 -25 -40 -17 -38 21 -13 64 30
53 14 -3 27 -7 29 -8z m1231 1 c6 -7 9 -20 5 -29 -7 -19 -31 -29 -39 -17 -4 6
-16 10 -28 10 -16 0 -19 3 -8 9 7 5 11 13 7 19 -3 6 4 13 16 15 13 2 26 5 29
6 4 0 12 -5 18 -13z m-119 -50 c0 -2 -30 -14 -67 -27 -38 -12 -74 -24 -81 -27
-8 -3 -10 1 -6 11 3 9 17 16 32 15 15 0 45 7 67 15 43 17 55 19 55 13z m-910
-31 c0 -8 -7 -15 -16 -15 -14 0 -14 3 -4 15 7 8 14 15 16 15 2 0 4 -7 4 -15z
m590 -79 c0 -6 -123 -47 -127 -42 -2 2 22 13 54 24 62 22 73 24 73 18z m430
-6 c0 -5 -7 -7 -15 -4 -8 4 -15 8 -15 10 0 2 7 4 15 4 8 0 15 -4 15 -10z
m-616 -43 c17 -12 17 -14 -2 -37 l-19 -23 -23 23 c-22 22 -22 24 -5 37 23 16
27 16 49 0z m-943 -37 c34 -19 18 -50 -27 -50 -20 0 -29 27 -14 45 15 18 16
18 41 5z m1878 -4 c21 -26 3 -45 -43 -43 l-42 2 28 27 c32 32 41 34 57 14z
m-274 -111 c-45 -19 -81 -29 -72 -19 9 9 74 32 92 32 6 0 -3 -5 -20 -13z
m-1295 -15 c13 -9 13 -10 0 -10 -8 0 -22 5 -30 10 -13 9 -13 10 0 10 8 0 22
-5 30 -10z m235 -80 c7 -12 -2 -12 -30 0 -19 8 -19 9 2 9 12 1 25 -3 28 -9z
m770 0 c-3 -5 -12 -10 -18 -10 -7 0 -6 4 3 10 19 12 23 12 15 0z m-520 -80
c98 -32 153 -32 261 3 90 29 158 43 134 27 -8 -5 -62 -26 -120 -46 -156 -53
-144 -13 -148 -476 -3 -214 -7 -388 -11 -388 -3 0 -116 38 -251 84 l-245 84
-3 326 c-2 299 -1 326 14 326 10 0 120 -36 246 -80 127 -44 234 -80 239 -80 5
0 9 25 9 55 0 86 -21 107 -149 150 -58 19 -113 40 -121 46 -24 16 54 0 145
-31z m-317 -785 c-8 -8 -151 -55 -155 -51 -2 2 29 15 69 29 74 26 95 31 86 22z
m960 -20 c29 -9 52 -19 49 -21 -5 -5 -127 36 -127 43 0 3 6 3 13 1 6 -3 36
-13 65 -23z m-1131 -41 c-3 -4 -70 -27 -147 -53 -78 -25 -141 -51 -139 -56 1
-6 124 -52 273 -103 203 -70 280 -92 306 -88 19 2 29 2 23 -1 -29 -11 -7 -23
115 -64 164 -55 197 -56 341 -7 63 21 116 36 118 34 3 -2 -52 -23 -120 -45
-95 -32 -126 -47 -130 -61 -7 -26 -47 -27 -54 -1 -4 15 -56 36 -231 96 -125
43 -322 110 -438 150 -140 48 -216 70 -226 64 -9 -5 -22 -3 -34 6 -15 11 -17
17 -8 32 8 13 24 18 60 19 31 0 89 16 159 42 104 38 146 50 132 36z m1376 -43
c104 -35 148 -46 160 -39 23 12 37 2 37 -27 0 -26 -26 -41 -45 -25 -7 6 -21 8
-31 4 -12 -3 -10 0 5 9 24 14 24 15 -30 34 -30 11 -98 35 -151 52 -54 18 -98
35 -98 37 0 7 5 5 153 -45z m65 -106 c-10 -10 -531 -185 -536 -180 -3 3 0 5 6
5 40 0 -7 23 -143 69 l-154 53 -122 -41 c-68 -22 -124 -39 -126 -37 -3 2 52
23 121 46 l126 42 173 -58 173 -57 234 81 c225 77 259 88 248 77z m-1253 -194
c-13 -11 -107 -42 -112 -37 -2 2 22 13 54 24 69 24 70 24 58 13z m921 -17 c38
-15 87 -27 109 -28 36 -1 40 -4 40 -26 0 -22 -4 -25 -36 -22 -19 1 -55 -4 -79
-13 -24 -8 -45 -13 -47 -11 -2 2 20 12 49 21 29 10 57 21 61 25 4 4 -33 21
-83 39 -49 18 -90 35 -90 37 0 7 4 5 76 -22z m-1082 -49 c-3 -6 50 -30 121
-54 69 -24 124 -45 122 -47 -2 -3 -57 14 -123 37 -68 23 -129 39 -143 36 -14
-3 -31 -3 -38 0 -18 7 -16 40 3 51 19 11 64 -7 58 -23z m1056 -59 c0 -6 -93
-37 -97 -32 -2 2 15 11 39 19 47 17 58 19 58 13z m-476 -67 c-22 -4 -58 -15
-80 -24 l-39 -17 34 -15 c19 -8 42 -14 50 -14 9 1 27 1 41 1 14 0 32 0 41 -1
8 0 31 6 50 14 l34 15 -45 21 c-25 12 -38 19 -29 17 67 -18 99 -30 99 -36 0
-4 -25 -15 -55 -26 -32 -10 -62 -28 -70 -41 -20 -29 -30 -29 -57 2 -14 16 -58
37 -130 61 -60 20 -107 38 -105 40 2 2 28 -4 58 -14 l54 -19 80 27 c44 15 87
25 95 21 9 -3 -3 -8 -26 -12z m281 -79 c13 -6 15 -9 5 -9 -8 0 -22 4 -30 9
-18 12 -2 12 25 0z m-621 -22 c18 1 18 1 0 -13 -11 -8 -14 -15 -9 -15 17 -1
-19 -20 -38 -20 -10 0 -20 7 -23 15 -8 21 16 47 35 39 9 -4 24 -6 35 -6z m681
3 c11 -5 25 -4 32 1 20 16 43 1 43 -26 0 -24 -3 -25 -44 -24 -37 2 -41 4 -28
14 19 14 18 15 -18 31 -28 13 -16 16 15 4z m-318 -137 c19 -5 20 -9 11 -30
-14 -31 -41 -31 -62 0 -16 25 -15 27 24 35 3 0 15 -2 27 -5z m-359 -468 l32
-36 0 -111 c0 -133 -14 -167 -82 -194 -75 -30 -155 1 -184 71 -22 52 -18 196
5 242 45 87 161 101 229 28z m-2563 20 c34 -23 58 -80 51 -121 -4 -17 -20 -45
-37 -61 -26 -25 -38 -29 -104 -32 l-74 -4 -3 -76 c-2 -49 -7 -77 -15 -80 -19
-6 -19 384 0 392 26 12 156 -1 182 -18z m954 14 c95 -27 122 -134 50 -200
l-31 -28 41 -72 c44 -77 48 -90 29 -90 -7 0 -33 35 -58 78 l-45 77 -55 0 -55
0 -3 -77 c-2 -60 -6 -78 -17 -78 -13 0 -15 31 -15 194 0 146 3 196 13 199 21
9 111 7 146 -3z m524 -4 c39 -16 71 -51 62 -66 -5 -8 -16 -4 -34 13 -33 31
-64 38 -102 25 -34 -12 -54 -50 -40 -77 5 -9 41 -32 80 -50 105 -49 133 -99
96 -170 -38 -74 -180 -80 -229 -10 -23 33 -5 35 39 4 53 -36 107 -34 146 4 56
56 33 102 -74 150 -73 33 -91 52 -91 96 0 39 18 63 59 81 38 17 49 17 88 0z
m1614 -3 c3 -8 -13 -13 -49 -15 l-53 -3 -3 -182 c-2 -152 -5 -183 -17 -183
-12 0 -15 31 -17 183 l-3 182 -45 3 c-25 1 -52 5 -60 8 -13 4 -13 6 0 15 22
14 242 7 247 -8z m487 11 c31 -12 15 -23 -36 -26 l-53 -3 -3 -182 c-2 -152 -5
-183 -17 -183 -12 0 -15 31 -17 183 l-3 182 -45 3 c-122 7 -79 32 57 32 56 0
108 -3 117 -6z m-3254 -158 c5 -147 5 -148 33 -172 54 -46 132 -25 158 43 5
13 9 83 9 154 0 108 2 129 15 129 21 0 22 -254 1 -305 -28 -65 -110 -93 -180
-60 -58 28 -66 55 -66 220 0 113 3 146 13 143 8 -3 13 -47 17 -152z m1500 64
l0 -90 100 0 100 0 0 90 c0 73 3 90 15 90 13 0 15 -28 15 -196 0 -152 -3 -195
-12 -192 -9 3 -14 33 -16 92 l-3 87 -97 -3 -97 -3 -3 -87 c-2 -69 -6 -88 -17
-88 -13 0 -15 31 -15 195 0 167 2 195 15 195 12 0 15 -17 15 -90z m2253 -93
c37 -100 67 -188 67 -195 0 -30 -26 -2 -45 49 l-21 54 -83 0 -83 0 -22 -54
c-20 -51 -46 -79 -46 -50 0 12 126 354 136 371 16 25 36 -11 97 -175z m425 18
c45 -91 86 -164 90 -161 4 2 43 77 87 165 44 89 85 161 92 161 10 0 13 -44 13
-196 0 -152 -3 -195 -12 -192 -9 3 -14 46 -18 149 l-5 144 -75 -147 c-41 -82
-80 -148 -85 -148 -6 0 -44 66 -85 148 l-75 147 -3 -140 c-3 -135 -12 -177
-32 -145 -11 16 -14 338 -4 364 3 9 11 16 18 16 6 0 48 -74 94 -165z m1165
-12 c75 -204 77 -208 59 -208 -7 0 -23 25 -35 55 l-22 55 -73 3 c-44 2 -79 -2
-87 -8 -8 -6 -21 -34 -30 -61 -10 -28 -23 -49 -31 -49 -8 0 -14 4 -14 9 0 5
29 87 65 182 36 96 67 180 70 187 14 38 36 0 98 -165z m342 -18 c0 -142 -3
-189 -12 -192 -10 -4 -13 39 -13 192 0 153 3 196 13 193 9 -4 12 -51 12 -193z"/>
<path d="M3888 2461 c-32 -29 -33 -32 -36 -124 -4 -108 9 -147 58 -172 49 -25
88 -19 126 19 l34 34 0 107 c0 104 -1 107 -29 136 -42 41 -107 41 -153 0z"/>
<path d="M1347 2483 c-4 -3 -7 -44 -7 -90 l0 -83 63 0 c41 0 70 5 85 16 55 38
48 119 -12 148 -34 16 -117 22 -129 9z"/>
<path d="M2337 2483 c-4 -3 -7 -44 -7 -90 l0 -83 66 0 c59 0 68 3 95 29 46 47
34 112 -26 136 -35 15 -116 20 -128 8z"/>
<path d="M5464 2363 c-16 -43 -30 -81 -32 -85 -2 -4 29 -8 68 -8 65 0 71 2 65
18 -4 9 -18 47 -32 85 -14 37 -29 67 -33 67 -4 0 -20 -35 -36 -77z"/>
<path d="M7075 2407 c-60 -146 -61 -137 20 -137 36 0 65 3 65 8 0 11 -56 151
-63 158 -4 4 -14 -9 -22 -29z"/>
</g>
</svg>
